####
#
# OBJ File Generated by Meshlab
#
####
# Object kitchen3.obj
#
# Vertices: 72
# Faces: 136
#
####
vn 0.577564 -0.577151 -0.577336
v 23.103148 -8.840631 -2.873718
vn 0.707338 -0.706875 0.000032
v 23.103148 -8.840631 -0.709570
vn 0.707281 -0.706932 0.000004
v 23.103148 -8.840631 1.973609
vn 0.707307 -0.706906 0.000000
v 23.103148 -8.840631 0.632020
vn 0.707281 -0.706932 0.000000
v 23.103148 -8.840631 1.315957
vn 1.000000 0.000494 0.000000
v 23.103148 -8.840631 -0.051917
vn -0.000155 0.707107 -0.707107
v 20.825359 7.692781 -2.873720
vn 0.586431 0.579408 0.566026
v 23.094971 7.693280 2.579704
vn 0.709241 -0.704909 0.009032
v 8.263682 -1.651483 1.078358
vn 0.722631 0.680631 0.120608
v 8.242020 7.692203 3.870900
vn -0.568024 0.575344 0.588496
v 8.242020 7.692203 3.110951
vn -0.000740 0.999997 -0.002180
v 8.242020 7.692202 2.238123
vn -0.002304 0.999997 -0.000001
v 23.094978 7.693280 -0.051919
vn 0.706932 0.707282 0.000004
v 23.094978 7.693280 1.973608
vn 0.706932 0.707282 0.000000
v 23.094978 7.693280 1.315955
vn 0.706907 0.707307 -0.000000
v 23.094978 7.693280 0.632018
vn 0.577137 0.577549 -0.577365
v 23.094978 7.693279 -2.873719
vn 0.706875 0.707339 -0.000032
v 23.094978 7.693279 -0.709572
vn -0.577798 -0.576738 -0.577514
v 8.234468 -1.651411 -2.801537
vn 0.539891 -0.614515 0.575229
v 8.182991 -8.843180 4.070398
vn -0.137119 -0.698972 0.701881
v -4.975819 -8.846794 3.110947
vn -0.000163 0.742906 -0.669396
v 14.904642 7.691482 -2.873720
vn 0.000155 -0.707107 -0.707107
v 20.833530 -8.841130 -2.873718
vn 0.000155 -0.707107 -0.707107
v -2.210266 -8.846188 -2.873719
vn -0.000155 0.707107 -0.707107
v 18.059816 7.692174 -2.873720
vn -0.137442 0.698873 0.701916
v -4.983988 7.687117 3.110945
vn -0.011055 0.536999 0.843511
v 8.228577 7.668240 2.228009
vn -0.576888 0.577974 -0.577188
v 8.228577 7.668240 -2.801537
vn 0.000155 -0.707146 -0.707068
v 11.489251 -8.843181 -2.873719
vn -0.000155 0.707107 -0.707107
v -2.218435 7.687723 -2.873721
vn -0.000155 0.707107 -0.707107
v 4.360304 7.689167 -2.873721
vn -0.000155 0.707107 -0.707107
v 0.936739 7.688416 -2.873721
vn -0.027640 0.702338 0.711307
v 4.360286 7.689168 4.070395
vn 0.088760 -0.680855 0.727020
v 7.928846 -8.843962 4.137759
vn 0.000155 -0.707107 -0.707107
v 18.067987 -8.841738 -2.873718
vn -0.707357 0.706857 -0.000007
v -7.253590 7.686619 1.973599
vn -1.000000 -0.000494 0.000000
v -7.253590 7.686618 -0.051922
vn -1.000000 -0.000247 0.000000
v -7.253590 7.686618 1.315946
vn -0.707359 0.706854 -0.000000
v -7.253590 7.686618 -0.709575
vn -0.577564 0.577151 -0.577336
v -7.253590 7.686618 -2.873722
vn -1.000000 -0.000247 0.000000
v -7.253590 7.686618 0.632015
vn -0.092145 0.701041 0.707143
v -2.218456 7.687724 3.546930
vn -0.010386 -0.537000 0.843518
v 8.234467 -1.651411 2.228009
vn 0.000155 -0.707107 -0.707107
v 0.944910 -8.845495 -2.873719
vn -0.000155 0.707146 -0.707068
v 7.920692 7.689949 -2.873721
vn -0.000155 0.707107 -0.707107
v -4.983971 7.687117 -2.873722
vn -0.027218 -0.703086 0.710584
v 4.368457 -8.844743 4.070396
vn 0.538566 0.614348 0.576648
v 8.174821 7.690732 4.070396
vn 0.000740 -0.999997 0.002181
v 8.250190 -8.841708 2.238124
vn -0.567671 -0.575643 0.588545
v 8.250190 -8.841707 3.110953
vn -0.706852 -0.707361 -0.000008
v -7.245419 -8.847292 1.973601
vn -0.706855 -0.707359 0.000000
v -7.245419 -8.847293 -0.709573
vn -0.577137 -0.577549 -0.577365
v -7.245419 -8.847293 -2.873720
vn -1.000000 -0.000494 0.000000
v -7.245419 -8.847293 0.632016
vn -0.706854 -0.707359 0.000000
v -7.245419 -8.847293 -0.051920
vn 0.001382 -0.999999 0.000001
v -7.245419 -8.847293 1.315947
vn -0.091804 -0.701110 0.707118
v -2.210285 -8.846187 3.546932
vn 0.000001 -0.002271 -0.999997
v 7.928864 -8.843963 -2.873719
vn 0.000155 -0.707107 -0.707107
v -4.975800 -8.846795 -2.873720
vn 0.576901 -0.577959 -0.577190
v 8.263683 -1.651483 -2.801537
vn 0.000002 -0.007994 -0.999968
v 14.912812 -8.842429 -2.873718
vn -0.000219 0.999796 -0.020202
v 11.481081 7.690731 -2.873720
vn -0.057243 0.702160 0.709714
v 0.936720 7.688417 3.870896
vn 0.710548 0.703591 0.009005
v 8.257792 7.668166 1.078358
vn 0.577810 0.576724 -0.577516
v 8.257792 7.668166 -2.801537
vn -0.632203 -0.590632 0.501471
v -7.245432 -8.847292 2.579698
vn 0.000155 -0.707146 -0.707068
v 4.368474 -8.844744 -2.873719
vn 0.087542 0.673541 0.733947
v 7.920676 7.689949 4.137757
vn -0.632620 0.590194 0.501460
v -7.253601 7.686619 2.579696
vn -0.056928 -0.702197 0.709703
v 0.944891 -8.845494 3.870898
vn 0.586777 -0.579097 0.565985
v 23.103140 -8.840631 2.579706
vn 0.738074 -0.664170 0.118846
v 8.250189 -8.841707 3.870902
# 72 vertices, 0 vertices normals

f 64//64 27//27 43//43
f 64//64 43//43 9//9
f 9//9 43//43 19//19
f 9//9 19//19 60//60
f 60//60 19//19 28//28
f 60//60 28//28 65//65
f 65//65 28//28 27//27
f 65//65 27//27 64//64
f 9//9 60//60 65//65
f 9//9 65//65 64//64
f 19//19 43//43 27//27
f 19//19 27//27 28//28
f 54//54 41//41 37//37
f 54//54 37//37 55//55
f 55//55 37//37 39//39
f 55//55 39//39 52//52
f 52//52 39//39 40//40
f 52//52 40//40 53//53
f 53//53 40//40 46//46
f 53//53 46//46 59//59
f 59//59 46//46 30//30
f 59//59 30//30 24//24
f 24//24 30//30 32//32
f 24//24 32//32 44//44
f 44//44 32//32 31//31
f 44//44 31//31 67//67
f 67//67 31//31 45//45
f 67//67 45//45 58//58
f 58//58 45//45 62//62
f 58//58 62//62 29//29
f 29//29 62//62 22//22
f 29//29 22//22 61//61
f 61//61 22//22 25//25
f 61//61 25//25 35//35
f 35//35 25//25 7//7
f 35//35 7//7 23//23
f 23//23 7//7 17//17
f 23//23 17//17 1//1
f 1//1 17//17 18//18
f 1//1 18//18 2//2
f 2//2 18//18 13//13
f 2//2 13//13 6//6
f 6//6 13//13 16//16
f 6//6 16//16 4//4
f 4//4 16//16 15//15
f 4//4 15//15 5//5
f 5//5 15//15 14//14
f 5//5 14//14 3//3
f 3//3 14//14 8//8
f 3//3 8//8 71//71
f 71//71 8//8 11//11
f 71//71 11//11 50//50
f 50//50 11//11 12//12
f 50//50 12//12 49//49
f 49//49 12//12 10//10
f 49//49 10//10 72//72
f 72//72 10//10 48//48
f 72//72 48//48 20//20
f 20//20 48//48 68//68
f 20//20 68//68 34//34
f 34//34 68//68 33//33
f 34//34 33//33 47//47
f 47//47 33//33 63//63
f 47//47 63//63 70//70
f 70//70 63//63 42//42
f 70//70 42//42 57//57
f 57//57 42//42 26//26
f 57//57 26//26 21//21
f 21//21 26//26 69//69
f 21//21 69//69 66//66
f 66//66 69//69 36//36
f 66//66 36//36 51//51
f 39//39 37//37 41//41
f 41//41 38//38 36//36
f 46//46 40//40 39//39
f 39//39 41//41 36//36
f 30//30 46//46 39//39
f 32//32 30//30 39//39
f 36//36 69//69 26//26
f 32//32 39//39 36//36
f 31//31 32//32 36//36
f 36//36 26//26 42//42
f 42//42 63//63 33//33
f 33//33 68//68 48//48
f 48//48 10//10 12//12
f 12//12 11//11 8//8
f 8//8 14//14 15//15
f 16//16 13//13 18//18
f 8//8 15//15 16//16
f 33//33 48//48 12//12
f 12//12 8//8 16//16
f 18//18 17//17 7//7
f 12//12 16//16 18//18
f 42//42 33//33 12//12
f 31//31 36//36 42//42
f 22//22 62//62 45//45
f 45//45 31//31 42//42
f 42//42 12//12 18//18
f 18//18 7//7 25//25
f 25//25 22//22 45//45
f 45//45 42//42 18//18
f 18//18 25//25 45//45
f 51//51 36//36 38//38
f 51//51 38//38 56//56
f 56//56 38//38 41//41
f 56//56 41//41 54//54
f 56//56 54//54 55//55
f 52//52 53//53 59//59
f 51//51 56//56 55//55
f 55//55 52//52 59//59
f 55//55 59//59 24//24
f 21//21 66//66 51//51
f 51//51 55//55 24//24
f 51//51 24//24 44//44
f 57//57 21//21 51//51
f 47//47 70//70 57//57
f 20//20 34//34 47//47
f 49//49 72//72 20//20
f 71//71 50//50 49//49
f 5//5 3//3 71//71
f 2//2 6//6 4//4
f 4//4 5//5 71//71
f 49//49 20//20 47//47
f 4//4 71//71 49//49
f 23//23 1//1 2//2
f 2//2 4//4 49//49
f 49//49 47//47 57//57
f 57//57 51//51 44//44
f 67//67 58//58 29//29
f 57//57 44//44 67//67
f 2//2 49//49 57//57
f 35//35 23//23 2//2
f 29//29 61//61 35//35
f 57//57 67//67 29//29
f 35//35 2//2 57//57
f 29//29 35//35 57//57
# 136 faces, 0 coords texture

# End of File
